<?xml version="1.0" encoding="UTF-8" standalone="no"?>
<!-- Created with Inkscape (http://www.inkscape.org/) -->

<svg
   width="1280"
   height="640"
   viewBox="0 0 338.66668 169.33333"
   version="1.1"
   id="svg5"
   xml:space="preserve"
   inkscape:version="1.2.2 (b0a8486541, 2022-12-01)"
   sodipodi:docname="horus-social-preview.svg"
   inkscape:export-filename="horus-social-preview.png"
   inkscape:export-xdpi="96"
   inkscape:export-ydpi="96"
   xmlns:inkscape="http://www.inkscape.org/namespaces/inkscape"
   xmlns:sodipodi="http://sodipodi.sourceforge.net/DTD/sodipodi-0.dtd"
   xmlns="http://www.w3.org/2000/svg"
   xmlns:svg="http://www.w3.org/2000/svg"><sodipodi:namedview
     id="namedview7"
     pagecolor="#ffffff"
     bordercolor="#666666"
     borderopacity="1.0"
     inkscape:showpageshadow="2"
     inkscape:pageopacity="0.0"
     inkscape:pagecheckerboard="0"
     inkscape:deskcolor="#d1d1d1"
     inkscape:document-units="mm"
     showgrid="false"
     inkscape:zoom="0.27653848"
     inkscape:cx="640.0556"
     inkscape:cy="323.64393"
     inkscape:window-width="1916"
     inkscape:window-height="1029"
     inkscape:window-x="0"
     inkscape:window-y="0"
     inkscape:window-maximized="1"
     inkscape:current-layer="layer1"
     showborder="false"
     showguides="true" /><defs
     id="defs2" /><g
     inkscape:groupmode="layer"
     id="layer2"
     inkscape:label="background"><rect
       style="fill:#ffffff;fill-rule:evenodd;stroke:none;stroke-width:1;stroke-linecap:round;stroke-linejoin:round"
       id="rect457"
       width="338.66666"
       height="169.33333"
       x="0"
       y="0" /><rect
       style="display:none;fill:none;fill-rule:evenodd;stroke:#000000;stroke-width:0.999998;stroke-linecap:round;stroke-linejoin:round"
       id="rect2569"
       width="295.33334"
       height="126"
       x="21.666666"
       y="21.666666" /></g><g
     inkscape:label="red-arrows"
     inkscape:groupmode="layer"
     id="layer1"
     style="display:inline"
     transform="translate(-11.03781,-66.630669)"><g
       id="g324"
       transform="matrix(0.55431122,0,0,0.55431061,116.33327,47.023039)"
       style="stroke-width:1.80405"><g
         id="g5325"
         inkscape:label="fun()"
         style="stroke-width:1.80405"><path
           id="rect492-7-0"
           style="fill:#a90533;fill-opacity:1;fill-rule:evenodd;stroke:none;stroke-width:1.80404;stroke-linecap:round;stroke-linejoin:round"
           d="m 43.507792,216.75446 v -35.94439 l 6.433589,-5.43824 c 2.018701,2.52271 4.04453,4.99177 6.433589,7.20545 v 34.17718 z"
           sodipodi:nodetypes="cccccc" /><text
           xml:space="preserve"
           style="font-style:normal;font-variant:normal;font-weight:900;font-stretch:expanded;font-size:9.954px;line-height:1.25;font-family:'Iosevka SS08';-inkscape-font-specification:'Iosevka SS08, Heavy Expanded';font-variant-ligatures:normal;font-variant-caps:normal;font-variant-numeric:normal;font-variant-east-asian:normal;text-align:start;letter-spacing:0px;baseline-shift:baseline;text-anchor:start;display:inline;fill:#ffffff;fill-opacity:1;stroke:none;stroke-width:0.47732"
           x="-214.2771"
           y="53.325741"
           id="text1002-2"
           transform="rotate(-90)"><tspan
             sodipodi:role="line"
             id="tspan1000-11"
             style="font-style:normal;font-variant:normal;font-weight:900;font-stretch:expanded;font-family:'Iosevka SS08';-inkscape-font-specification:'Iosevka SS08, Heavy Expanded';font-variant-ligatures:normal;font-variant-caps:normal;font-variant-numeric:normal;font-variant-east-asian:normal;text-align:start;baseline-shift:baseline;text-anchor:start;fill:#ffffff;stroke-width:0.47732"
             x="-214.2771"
             y="53.325741">fun()</tspan></text></g><g
         aria-label="e"
         transform="matrix(1.0664179,0,0,0.93771868,-2.303375,-43.803713)"
         id="text1943"
         style="font-weight:bold;font-size:50.662px;line-height:1.25;font-family:Roboto;-inkscape-font-specification:'Roboto, Bold';fill:#000000;fill-opacity:1;stroke:none;stroke-width:0.47732;stroke-opacity:1"
         inkscape:label="eye"><path
           d="M 53.573087,236.8214 C 43.256356,223.76008 45.122539,214.46258 41.038028,214.46258 H 13.899272 c 26.161769,-17.2702 28.932477,-31.61311 47.539893,-40.74742 6.612077,-3.25051 14.136148,-4.87578 22.572248,-4.87578 12.654132,0 22.600727,3.25051 29.839827,9.75154 7.29605,6.501 10.9441,15.7185 10.9441,27.65252 v 8.21914 H 65.885213 c 3.143702,15.92482 16.66664,31.32674 30.040602,37.18247 26.485515,11.59656 43.165095,16.81318 75.860645,16.95322 24.74189,0.10598 31.69536,-10.86481 31.83907,-19.33556 0.0725,-4.27102 -2.22382,-8.72268 -6.08231,-9.07455 -4.43601,-0.40453 -6.99002,3.51434 -6.4632,7.12403 0.62648,4.29249 6.55289,5.75009 6.82077,2.0765 0.41614,-5.70672 -4.06821,-2.05169 -3.13939,-3.47768 1.55749,-2.3912 5.91142,-0.62797 5.61729,3.92912 -0.16287,2.5234 -1.74223,4.79947 -5.2334,4.56987 -7.99895,-0.52606 -8.87632,-12.31313 -2.79451,-16.47828 6.66832,-4.56683 14.54274,1.30616 14.7261,10.38239 0.36648,18.14018 -13.21329,29.66056 -39.68929,29.5429 -23.42625,-0.10411 -79.262203,2.70872 -113.814503,-41.03561 z m 30.352815,-51.68305 c -4.902045,0 -8.892096,1.34665 -11.970119,4.03993 -3.021028,2.69328 -4.959075,6.54743 -5.814074,11.56251 h 34.371381 v -1.60204 c -0.11406,-4.45785 -1.596075,-7.89409 -4.446048,-10.30875 -2.850041,-2.46109 -6.897088,-3.69165 -12.14114,-3.69165 z"
           id="path1945"
           sodipodi:nodetypes="ssccscsccssssssssssssscccccsc"
           style="display:inline;fill:#000000;fill-opacity:1;stroke:none;stroke-width:0.47732;stroke-opacity:1" /></g><g
         id="g5352"
         inkscape:label="module()"
         style="stroke-width:1.80405"><path
           id="rect492-7"
           style="fill:#a90533;fill-opacity:1;fill-rule:evenodd;stroke:none;stroke-width:1.80404;stroke-linecap:round;stroke-linejoin:round"
           d="m 125.93265,126.86308 c 24.61432,17.04052 70.29135,17.5716 86.0501,17.5716 l 5.43823,6.43359 -5.43823,6.43358 h -78.8089 c 0,-8.66262 1.24094,-20.15853 -7.2412,-30.43877 z"
           sodipodi:nodetypes="cccccc" /><text
           xml:space="preserve"
           style="font-style:normal;font-variant:normal;font-weight:900;font-stretch:expanded;font-size:9.954px;line-height:1.25;font-family:'Iosevka SS08';-inkscape-font-specification:'Iosevka SS08, Heavy Expanded';font-variant-ligatures:normal;font-variant-caps:normal;font-variant-numeric:normal;font-variant-east-asian:normal;text-align:start;baseline-shift:baseline;text-anchor:start;fill:#ffffff;fill-opacity:1;stroke:none;stroke-width:0.47732"
           x="153.04205"
           y="154.18672"
           id="text1002"><tspan
             sodipodi:role="line"
             id="tspan1000"
             style="font-style:normal;font-variant:normal;font-weight:900;font-stretch:expanded;font-family:'Iosevka SS08';-inkscape-font-specification:'Iosevka SS08, Heavy Expanded';font-variant-ligatures:normal;font-variant-caps:normal;font-variant-numeric:normal;font-variant-east-asian:normal;text-align:start;baseline-shift:baseline;text-anchor:start;fill:#ffffff;stroke-width:0.47732"
             x="153.04205"
             y="154.18672">-module().</tspan></text></g><path
         id="rect1149"
         style="display:inline;fill:#000000;fill-opacity:1;fill-rule:evenodd;stroke:none;stroke-width:1.80405;stroke-linecap:round;stroke-linejoin:round;stroke-opacity:1"
         d="M 29.771726,89.021663 C 121.56293,48.119326 122.57055,101.30046 218.52712,101.30046 v 12.81527 c -103.83211,0 -91.20041,-54.148675 -192.555064,-10.09178 z"
         sodipodi:nodetypes="ccccc"
         inkscape:label="eyebrow" /></g><g
       id="g3896"
       transform="translate(4.7262272,0.92204131)"><path
         fill-rule="evenodd"
         clip-rule="evenodd"
         d="m 46.731709,185.32778 c -8.033408,0 -14.527638,6.54209 -14.527638,14.63557 0,6.46955 4.161077,11.9459 9.933591,13.88414 0.721709,0.14572 0.986075,-0.31492 0.986075,-0.70239 0,-0.3393 -0.02382,-1.5023 -0.02382,-2.71408 -4.041239,0.87248 -4.882791,-1.74466 -4.882791,-1.74466 -0.649453,-1.69619 -1.611737,-2.13213 -1.611737,-2.13213 -1.322693,-0.89656 0.09634,-0.89656 0.09634,-0.89656 1.467212,0.097 2.237103,1.5023 2.237103,1.5023 1.298601,2.22908 3.391191,1.59924 4.233034,1.21148 0.120135,-0.94504 0.505233,-1.59925 0.914112,-1.96263 -3.223178,-0.3393 -6.614369,-1.59925 -6.614369,-7.22101 0,-1.59925 0.576904,-2.90765 1.491015,-3.92525 -0.14423,-0.36338 -0.649451,-1.86599 0.144514,-3.87709 0,0 1.226649,-0.38777 3.992472,1.50231 a 13.967393,13.967393 0 0 1 3.632056,-0.48472 c 1.22665,0 2.47708,0.16979 3.631765,0.48472 2.766115,-1.89008 3.992764,-1.50231 3.992764,-1.50231 0.793966,2.0111 0.288442,3.51371 0.14422,3.87709 0.938186,1.0176 1.491298,2.326 1.491298,3.92525 0,5.62176 -3.391181,6.85732 -6.638443,7.22101 0.529306,0.46032 0.986064,1.33252 0.986064,2.71378 0,1.96263 -0.02382,3.53779 -0.02382,4.02221 0,0.38776 0.264658,0.8484 0.986075,0.70297 5.772514,-1.93883 9.933583,-7.41488 9.933583,-13.88443 0.02382,-8.09348 -6.494221,-14.63557 -14.503533,-14.63557 z"
         fill="#24292f"
         id="path481"
         style="stroke-width:0.256304" /><text
         xml:space="preserve"
         style="font-style:normal;font-variant:normal;font-weight:bold;font-stretch:normal;font-size:31.8611px;line-height:1.25;font-family:Mona-Sans;-inkscape-font-specification:'Mona-Sans, Bold';font-variant-ligatures:normal;font-variant-caps:normal;font-variant-numeric:normal;font-variant-east-asian:normal;fill:#000000;fill-opacity:1;stroke:none;stroke-width:0.264583"
         x="68.753105"
         y="208.55449"
         id="text544"><tspan
           sodipodi:role="line"
           id="tspan542"
           style="font-style:normal;font-variant:normal;font-weight:bold;font-stretch:normal;font-size:31.8611px;font-family:Mona-Sans;-inkscape-font-specification:'Mona-Sans, Bold';font-variant-ligatures:normal;font-variant-caps:normal;font-variant-numeric:normal;font-variant-east-asian:normal;stroke-width:0.264583"
           x="68.753105"
           y="208.55449">rabbitmq/horus</tspan></text></g></g></svg>
